<?xml version="1.0" encoding="utf-8"?>
<!-- Generator: Adobe Illustrator 23.0.1, SVG Export Plug-In . SVG Version: 6.00 Build 0)  -->
<svg version="1.1" id="Capa_1" xmlns="http://www.w3.org/2000/svg" xmlns:xlink="http://www.w3.org/1999/xlink" x="0px" y="0px"
	 viewBox="0 0 512 512" style="enable-background:new 0 0 512 512;" xml:space="preserve">
<path d="M363.9,358.4l33.4,139.6c1.6,6.5,7.3,11.1,14,11.1h2c8,0,14.4-6.5,14.4-14.4V358.1l2.2-0.6c10-2.8,17-11.3,17.9-21.7
	l11.9-138.4c1-11.6-2.9-23.2-10.8-31.8h0c-6.8-7.4-16-12.1-26-13.2l-1.7-0.2L373.8,41.4C363.8,18.1,341,3,315.7,3H196.3
	c-25.3,0-48.1,15.1-58.1,38.4L90.8,152.2l-1.7,0.2c-10,1.1-19.2,5.8-26,13.2c-7.9,8.6-11.8,20.2-10.8,31.8l11.9,138.4
	c0.9,10.4,7.9,18.9,17.9,21.7l2.2,0.6v26c0,2.5,2,4.5,4.5,4.5s4.5-2,4.5-4.5v-25.7h45.6L106,495.8c-0.6,2.5-2.8,4.2-5.3,4.2h-2
	c-3,0-5.4-2.4-5.4-5.4V416c0-2.5-2-4.5-4.5-4.5s-4.5,2-4.5,4.5v78.6c0,8,6.5,14.4,14.4,14.4h2c6.7,0,12.5-4.6,14-11.1l33.3-139.6
	h157.8c2.5,0,4.5-2,4.5-4.5c0-2.5-2-4.5-4.5-4.5H135.5v-23.2h241v23.2h-38.6c-2.5,0-4.5,2-4.5,4.5c0,2.5,2,4.5,4.5,4.5H363.9z
	 M418.4,161.1c9.2,0.1,17.7,3.8,23.9,10.6c6.3,6.8,9.3,15.7,8.5,24.9L438.8,335c-0.7,8.2-7.4,14.3-15.6,14.3h-37.7V326l2.3-0.5
	c11.8-2.8,20.1-13.3,20.1-25.5v-22.5c0-12.2-8.3-22.6-20.1-25.5l-2.3-0.5v-57.6c0-18,14.7-32.7,32.7-32.7L418.4,161.1z M126.5,349.4
	H88.8c0,0,0,0,0,0c-8.2,0-14.9-6.2-15.6-14.3L61.2,196.6c-0.8-9.2,2.2-18.1,8.5-24.9c6.3-6.8,14.8-10.6,24-10.6
	c18.1,0,32.7,14.7,32.7,32.7v57.6l-2.3,0.5c-11.8,2.8-20.1,13.3-20.1,25.5V300c0,12.2,8.3,22.6,20.1,25.5l2.3,0.5V349.4z
	 M130.3,317.2c-9.5,0-17.2-7.7-17.2-17.2v-22.5c0-9.5,7.7-17.2,17.2-17.2h45.2c2.5,0,4.5-2,4.5-4.5s-2-4.5-4.5-4.5h-39.9v-57.5
	c0-19.2-13-35.8-31.6-40.5l-3.4-0.9l46-107.6c8.5-20,28.1-32.9,49.8-32.9h119.4c21.7,0,41.3,12.9,49.8,32.9l46,107.6l-3.4,0.9
	c-18.6,4.6-31.6,21.3-31.6,40.5v57.5H207.4c-2.5,0-4.5,2-4.5,4.5s2,4.5,4.5,4.5h174.3c9.5,0,17.2,7.7,17.2,17.2V300
	c0,9.5-7.7,17.2-17.2,17.2H130.3z M418.7,358.4v136.2c0,3-2.4,5.4-5.4,5.4h-2c-2.5,0-4.7-1.7-5.3-4.2l-32.9-137.5H418.7z"/>
</svg>
