<?xml version="1.0" encoding="utf-8"?>
<!-- Generator: Adobe Illustrator 23.0.1, SVG Export Plug-In . SVG Version: 6.00 Build 0)  -->
<svg version="1.1" id="Capa_1" xmlns="http://www.w3.org/2000/svg" xmlns:xlink="http://www.w3.org/1999/xlink" x="0px" y="0px"
	 viewBox="0 0 512 512" style="enable-background:new 0 0 512 512;" xml:space="preserve">
<g>
	<path d="M387.8,216.8c1.8-8.9,2.7-18,2.7-27.2c0-74.4-60.3-134.9-134.5-134.9c-74.2,0-134.5,60.5-134.5,134.9
		c0,74.4,60.3,134.9,134.5,134.9c50.6,0,96.4-28,119.6-73.1c1.1-2.2,0.3-5-1.9-6.1c-1.1-0.6-2.3-0.7-3.4-0.3
		c-1.1,0.4-2.1,1.2-2.6,2.2c-21.7,42.1-64.4,68.2-111.6,68.2c-69.2,0-125.5-56.5-125.5-125.9c0-69.4,56.3-125.9,125.5-125.9
		c69.2,0,125.5,56.5,125.5,125.9c0,8.5-0.9,17.1-2.5,25.4c-0.5,2.4,1.1,4.8,3.5,5.3C384.9,220.8,387.3,219.2,387.8,216.8z"/>
	<path d="M333,159.4l-50.5-7.2L260,106.3c-0.8-1.8-2.6-2.5-4-2.5s-3.2,0.6-4,2.4l-22.5,46l-50.5,7.2c-2,0.2-3.1,1.7-3.6,3.1
		c-0.4,1.4-0.4,3.3,1,4.6l36.6,35.7l-8.7,50.4c-0.4,2,0.7,3.6,1.8,4.4c1.1,0.8,3,1.4,4.6,0.4L256,234l45.1,23.9
		c1.7,1,3.6,0.4,4.7-0.4c1.2-0.8,2.3-2.4,1.9-4.3l0-0.1l-8.7-50.4l36.6-35.6c1.2-1.2,1.7-3,1.1-4.6
		C336.1,160.9,334.7,159.7,333,159.4z M290.9,197.9c-1.1,1-1.6,2.5-1.3,4l7.6,43.6l-39.1-20.7c-1.3-0.7-2.9-0.7-4.2,0l-39.1,20.7
		l7.6-43.7c0.3-1.5-0.2-3-1.3-4l-31.7-30.9l43.7-6.3c1.5-0.2,2.7-1.1,3.4-2.5l19.5-39.8l19.5,39.8c0.7,1.3,1.9,2.3,3.4,2.5l43.7,6.3
		L290.9,197.9z"/>
	<path d="M364.4,506.3c1,1.9,2.9,2.3,4.4,2.2c1.5-0.2,3.2-1,3.8-3l20.5-64.7l66,14.5c2,0.5,3.7-0.6,4.5-1.8c0.9-1.2,1.4-3.1,0.4-4.8
		l-0.1-0.1l-74.4-129.3l1.5-1.6c32.9-34.8,51-80.4,51-128.2C442,86.7,358.6,3,256,3c-31.6,0-62.7,8.1-90.2,23.3
		c-2.2,1.2-3,4-1.8,6.2c0.6,1.1,1.5,1.8,2.7,2.2c1.2,0.3,2.4,0.2,3.4-0.4C196.3,19.7,226,12,256,12c97.6,0,177,79.6,177,177.5
		c0,97.9-79.4,177.5-177,177.5c-97.6,0-177-79.6-177-177.5c0-52.5,23-102,63.1-135.9c1.9-1.6,2.1-4.5,0.5-6.4
		c-0.8-0.9-1.9-1.5-3.1-1.6c-1.2-0.1-2.4,0.3-3.3,1C94.2,82.3,70,134.4,70,189.6c0,47.9,18.2,93.5,51.2,128.4l1.5,1.6l-21.9,38
		c-0.9,1.5-0.9,2.8-0.2,4.1c0.9,1.6,2.8,2.6,4.5,2.6c0,0,0,0,0,0c1.5,0,2.6-0.7,3.4-2.2l20.7-36l2.8,2.5
		c22.6,20.3,49.9,34.8,79.1,42.1l3.9,1l-70.1,121.8l-18.6-58.8c-0.7-2.2-3-3.5-5.3-3l-60,13.2l30.1-52.3c1.2-2.2,0.5-4.9-1.6-6.2
		c-1-0.6-2.2-0.8-3.4-0.5c-1.2,0.3-2.1,1.1-2.7,2.1L48,449.3c-1.1,1.7-0.5,3.6,0.4,4.8c0.9,1.2,2.5,2.3,4.4,1.8l66.1-14.5l20.5,64.6
		c0.6,2,2.3,2.9,3.8,3.1c1.5,0.2,3.4-0.3,4.3-2.1l76.8-133.4l2,0.3c19.6,3.2,39.8,3.1,59.4,0l2-0.3l46.5,80.8
		c0.8,1.4,2.3,2.3,3.9,2.3c0.8,0,1.6-0.2,2.2-0.6c2.2-1.2,2.9-4,1.6-6.2l-45-78.1l3.9-1c29.2-7.3,56.5-21.9,79-42.2l2.8-2.5
		L451,444.4l-60-13.2c-2.3-0.5-4.5,0.8-5.3,3L367.1,493l-7.4-12.9c-0.6-1-1.6-1.8-2.7-2.1c-1.2-0.3-2.4-0.2-3.4,0.5
		c-2.2,1.2-2.9,4-1.6,6.2L364.4,506.3z"/>
</g>
</svg>
