<?xml version="1.0" encoding="utf-8"?>
<!-- Generator: Adobe Illustrator 23.0.1, SVG Export Plug-In . SVG Version: 6.00 Build 0)  -->
<svg version="1.1" id="Capa_1" xmlns="http://www.w3.org/2000/svg" xmlns:xlink="http://www.w3.org/1999/xlink" x="0px" y="0px"
	 viewBox="0 0 512 512" style="enable-background:new 0 0 512 512;" xml:space="preserve">
<g>
	<path d="M3.5,369.5c0,76.6,62.4,139,139,139h362c2.2,0,4-1.8,4-4v-362c0-2.2-1.8-4-4-4h-223l-0.2-3.3
		C277.5,61.3,216.5,3.5,142.5,3.5c-76.6,0-139,62.4-139,139V369.5z M478.5,146.5h22v354H322.6l6.7-6.5
		c4.4-4.3,133.5-133.5,134.9-134.9c9.3-9.3,14.4-21.6,14.4-34.6V146.5z M343.4,468.6l0.1-9.1v-86l86.5,0l8.6-0.1L343.4,468.6z
		 M281.5,369.5v-223h189v178c0,22.6-18.4,41-41,41h-90c-2.2,0-4,1.8-4,4v90c0,22.6-18.4,41-41,41H191.3l13.2-6.6
		C252,470.1,281.5,422.4,281.5,369.5z M11.5,142.5c0-72.2,58.8-131,131-131s131,58.8,131,131v178.2l-6.6-13.2
		c-23.8-47.5-71.4-77-124.4-77S41.9,260,18.1,307.5l-6.6,13.2V142.5z M142.5,238.5c72.2,0,131,58.8,131,131s-58.8,131-131,131
		s-131-58.8-131-131S70.3,238.5,142.5,238.5z"/>
	<path d="M142.5,290.5c-43.6,0-79,35.4-79,79s35.4,79,79,79s79-35.4,79-79S186.1,290.5,142.5,290.5z M142.5,440.5
		c-39.1,0-71-31.9-71-71s31.9-71,71-71s71,31.9,71,71S181.6,440.5,142.5,440.5z"/>
	<path d="M142.5,320.5c-27,0-49,22-49,49s22,49,49,49s49-22,49-49S169.5,320.5,142.5,320.5z M142.5,410.5c-22.6,0-41-18.4-41-41
		s18.4-41,41-41s41,18.4,41,41S165.1,410.5,142.5,410.5z"/>
	<path d="M142.5,260.5c-23.7,0-46.3,7.5-65.3,21.7c-0.9,0.6-1.4,1.6-1.6,2.6s0.1,2.1,0.8,3c1.3,1.8,3.8,2.1,5.6,0.8
		c17.6-13.2,38.5-20.1,60.5-20.1c55.7,0,101,45.3,101,101s-45.3,101-101,101s-101-45.3-101-101c0-22,7-42.9,20.1-60.5
		c0.6-0.9,0.9-1.9,0.8-3s-0.7-2-1.6-2.6c-0.7-0.5-1.5-0.8-2.4-0.8c-0.2,0-0.4,0-0.6,0c-1.1,0.2-2,0.7-2.6,1.6
		c-14.2,19-21.7,41.5-21.7,65.3c0,60.1,48.9,109,109,109s109-48.9,109-109S202.6,260.5,142.5,260.5z"/>
</g>
</svg>
