<?xml version="1.0" encoding="utf-8"?>
<!-- Generator: Adobe Illustrator 23.0.1, SVG Export Plug-In . SVG Version: 6.00 Build 0)  -->
<svg version="1.1" id="Слой_1" xmlns="http://www.w3.org/2000/svg" xmlns:xlink="http://www.w3.org/1999/xlink" x="0px" y="0px"
	 viewBox="0 0 479 479" style="enable-background:new 0 0 479 479;" xml:space="preserve">
<path d="M131.8,449.4c35,18,72.2,26.6,108.8,26.6c83.5,0,163.6-44.7,206.7-123.6c16.7-30.8,26.4-65.6,27.9-100.5
	c0.2-3.5,0.3-7.2,0.3-11.6c0-5.5-0.3-11.4-0.8-18.2l-0.1-0.8l0.3-0.7c0.1-0.4,0.2-0.8,0.3-1.2c0-0.4-0.1-0.9-0.2-1.3l-0.7-2.1l0-0.4
	C467.7,153,437.2,96.7,388.4,57c-2.9-2.4-5.9-4.6-9.1-6.8l-1.8-1.3c-0.1-0.1-0.2-0.2-0.3-0.3c-0.1,0-0.2-0.1-0.3-0.2l-0.2-0.1
	C336.4,19.4,288.8,4,239.2,3.9c-1.9,0-3.9,0-5.3,0.1l-0.3,0c-26.4,0.5-52.3,5.5-76.9,14.8l-1.8,0.7l-1.5-1.2
	c-20.5-16-48.7-18.9-72.1-7.5C57.9,22.3,42.9,46.4,42.9,72.3c0.5,8.7,2.5,17.2,6,25.2l0.8,1.8l-1.2,1.6c-8,11-15.1,22.7-21.1,34.8
	l-0.1,0.2c-0.1,0.2-0.1,0.3-0.2,0.4C-29.2,252.8,16.8,390.3,131.8,449.4z M373.3,61l2.2-2.5l2.6,2c0.6,0.5,1.2,0.9,1.9,1.4
	c0.9,0.7,1.9,1.3,2.8,2.1c36.8,30,63,70.1,75.6,115.9l3.1,11.4l-8.8-7.8c-0.4-0.4-0.9-0.8-1.3-1.2c-0.5-0.5-1.1-1-1.6-1.4
	c-10.1-7.7-21.4-13.3-33.6-16.8c-10.9-2.7-22.4-2.8-33.4-0.3c-10.3,2.3-21.1,2.4-31.4,0.2c-19.9-4.4-35.7-7.8-44.4-21.8
	c-12.6-20.3-6.7-47.8,6.9-58l0.1-0.1c4.7-3.2,10.5-4.5,16.1-3.5c7.8,0.6,15.7-0.7,22.9-3.9C360.8,72.8,367.7,67.6,373.3,61z
	 M235.3,14.6l1-1.7h2.9c44.8,0.1,88.3,13.2,125.6,38l3.4,2.2l-2.7,3c-4.6,5.1-10,9.2-16.2,12.1l-0.1,0.1c-6.1,2.6-12.8,3.7-19.4,3
	c-7.6-0.9-15.2,1-21.4,5.5c-16.9,12.7-24.4,45.3-9,69.9c10.8,17.3,29.3,21.3,50.8,26c11.2,2.4,22.6,2.3,33.8-0.1
	c9.8-2.3,20.1-2.3,30,0.1l0.1,0c10.9,3.1,21.1,8.2,30.2,15.1l0.1,0.1c9.5,7.9,16.7,18.2,20.9,29.9l0.1,0.4l0,0.4
	c0.7,7.8,1.1,14.9,1.1,21.7c0,3.7-0.1,6.8-0.2,9.7l0,1.3c-1.4,31.1-9.1,61-22.9,88.9l-1.7,3.5l-3.3-2.1c-8.5-5.4-17.7-9.6-27.3-12.7
	l-4-1.3l2-3.7c6-11.2,9.5-23.2,10.5-35.8c-0.1-26.2-14.8-49.7-38.2-61.3l-0.5-0.2c-1.8-0.9-3.5-1.6-5.2-2.3c-0.9-0.3-1.8-0.6-2.9-1
	l-0.8-0.3c-0.5-0.1-1-0.3-1.5-0.5c-0.3-0.1-0.5-0.2-0.8-0.3c-1.7-0.5-3.6-0.9-5.6-1.3h-0.1l-0.3-0.1c-0.8-0.2-1.7-0.3-2.6-0.4
	l-1-0.1c-19.6-2.7-39.3,3.2-54.2,16.2c-14.8,13-23.2,31.8-23.1,51.5c0.6,10.2,3.2,20.1,7.6,29.3l0,0.1c4.4,10.1,9.4,19.9,15,29.4
	l1.3,2.2l-1.7,1.9c-4.8,5.3-9.3,11-13.3,17c-2.4,4-5.4,7.7-8.9,10.8l-1.2,1.1l-1.6-0.2c-3.4-0.5-6.8-4.3-12.4-21
	c-3.8-11.8-5-24.5-3.5-36.8l0-0.2c1.9-9.8,0.1-19.8-5.2-28.2c-9.3-13-26.4-15.4-42.9-17.7c-13.1-1.8-26.3-1.2-39.2,1.8l-0.1,0
	c-10,1.9-16.1,3.1-22.9-1.2l-0.1-0.1c-11.1-7.6-16.6-21-14.1-34.2l0.1-0.5c2.8-8.3,11.1-11,23.8-15.2l0.1,0
	c16.7-4.8,32.3-12.4,46.4-22.5c11.2-8.2,41-30,41.8-59.4c0.5-15.6-7.2-25-15.3-35.1c-7.9-8.5-13.7-18.8-16.8-29.9l0-0.1
	C215.2,60.7,220.5,39,235.3,14.6z M396.8,328.6c-12.7,23.6-27.1,46.5-42.8,68l-2.8,3.9l-2.8-3.9c-8.5-11.8-21-29.9-32.2-48.9
	c-6.5-10.8-12.3-22.1-17.4-33.6c-4-8.1-6.3-16.7-7-25.7l0-0.3c0-32.7,26.7-59.4,59.4-59.4c1.8,0,3.7,0.1,5.5,0.2
	c12.6,1.1,24.7,6.4,34.2,14.9c12.6,11.2,19.8,27.4,19.8,44.3C410.6,297.1,405.9,310.7,396.8,328.6z M111.3,12.9L111.3,12.9
	c32.7,0.1,59.4,26.7,59.5,59.4c0,28.6-47.2,95.4-56.6,108.4l-2.8,3.9l-2.8-3.8c-19.1-25.8-35.8-53.6-49.6-82.5
	c-4-8.1-6.3-16.7-7-25.7l0-0.3C51.9,39.6,78.6,13,111.3,12.9z M35.3,140.2l0.1-0.5l0.2-0.5c4.3-8.8,9.3-17.4,14.7-25.5l3.3-5l3,5.9
	c0.2,0.4,0.4,0.8,0.6,1.1c0.5,1,1,1.9,1.5,2.9l0.1,0.2c0.8,1.5,1.5,2.9,2.3,4.4c0.5,1,1.1,2,1.6,3c0.8,1.5,1.7,3,2.5,4.5l0.5,0.9
	c0.4,0.7,0.8,1.4,1.2,2.1c0.9,1.5,1.8,3,2.7,4.5c0.6,1,1.2,2,1.8,2.9c0.7,1.1,1.3,2.2,2,3.3l0.8,1.4c0.5,0.9,1.1,1.8,1.6,2.7
	c0.7,1.2,1.5,2.4,2.3,3.6l1.2,1.9c0.2,0.2,0.3,0.5,0.5,0.8l0.4,0.6c1.5,2.3,2.9,4.5,4.3,6.6c0.4,0.6,0.9,1.3,1.3,1.9l0.3,0.5
	c0.9,1.3,1.7,2.6,2.6,3.9l1.9,2.8c0.7,1,1.4,2,2,3l1.9,2.8c0.5,0.7,1,1.4,1.5,2.1l0.2,0.3c0.6,0.8,1.2,1.7,1.8,2.5l8.2,11.3
	c0.7,0.9,1.2,1.6,1.4,1.8c0.9,1.2,2.2,1.8,3.6,1.8c1.4,0,2.7-0.7,3.6-1.8c6.6-8.8,64.9-87,64.9-122.6c0-2-0.1-4.2-0.4-6.6
	c0-0.4-0.1-0.8-0.2-1.2l-0.1-0.8c-0.2-1.8-0.5-3.2-0.7-4.5c-0.2-0.8-0.3-1.5-0.5-2.3c-0.3-1.5-0.8-3-1.2-4.6
	c-0.1-0.3-0.2-0.6-0.2-0.8c-0.1-0.3-0.2-0.7-0.3-1c-0.7-2.1-1.5-4.2-2.3-6c-0.1-0.3-0.3-0.6-0.4-0.9l-0.1-0.1
	c-0.7-1.6-1.6-3.2-2.4-4.8c-0.3-0.5-0.6-1-0.9-1.5l-0.3-0.5c-0.7-1.2-1.5-2.4-2.3-3.6c-0.5-0.6-0.9-1.3-1.4-2
	c-0.1-0.1-0.2-0.3-0.4-0.5c-0.1-0.1-0.2-0.3-0.3-0.4l-3.4-3.9l4.9-1.7c16.9-5.7,34.4-9.3,52.2-10.8l6.4-0.5l-3,5.7
	c-12.1,22.8-16,43.8-11.6,62.3c3.3,12.4,9.6,23.9,18.4,33.4l0.1,0.2c7.7,9.5,13.7,17,13.4,29.3c-0.7,24.9-27.9,44.9-38.2,52.5
	c-13.4,9.6-28.2,16.8-44,21.3c-14.1,4.6-25.2,8.3-29.5,20.8c-4.3,17.3,2.8,35.5,17.8,45.3c8.9,4.7,19.4,5.7,29,2.5l0.3-0.1
	c12-2.8,24.3-3.4,36.5-1.7c16,2.3,29.8,4.2,36.9,14.1c4.4,6.2,4.2,12.3,3.4,22.7l0,0.2c-1.6,13.3-0.2,27.1,4,39.9
	c3.4,10.1,8.5,25.4,19.6,27c0.7,0.1,1.4,0.2,2.1,0.2c7.5,0,12.5-7.2,18.2-15.5c2.6-3.7,5.7-8.1,9.3-12.4l3.1-3.7l2.5,4.1
	c14.4,23.3,29.3,43.6,33.5,49.2l0.2,0.3c0.8,1.1,2.2,1.8,3.6,1.8c1.4,0,2.8-0.7,3.6-1.8c17.2-23,33-47.4,47.1-72.5l1.4-2.4l2.7,0.8
	c10.2,2.9,19.8,7.3,28.7,13.1l2.8,1.8l-1.7,2.9c-19.9,34.4-48.7,63-83.1,82.8c-34.4,19.8-73.5,30.3-113.2,30.3c0,0-0.1,0-0.1,0
	c-7.8,0-15.7-0.4-23.5-1.2l-1.5-0.2l-0.9-1.2c-0.7-0.9-1.4-1.9-2-2.9l-0.1-0.2c-6-11-6-24.3-0.2-35.4l0.1-0.2
	c3.3-5.3,8.5-9.2,14.5-10.9c7-2.4,12.9-6.8,17.3-12.7c13-18.3,9.2-50.1-8.3-69.5c-9-10.3-21.8-16.6-35.4-17.5H199
	c-7.8,0.2-15.4,2.5-22,6.6l-0.2,0.1l-3.4,1.7c-17.9,8.8-43.5,17.6-61.5,15.5c-21.2-2.4-35.5-19.2-45-30.4
	c-21.9-25.6-26.1-53.4-31-85.6C30.6,196,30.4,167.9,35.3,140.2z M16.5,195.2l5-24.7l1.9,25.1c0.8,10.7,2.2,20.4,3.6,29.3
	c4.9,32.2,9.5,62.7,33,90.2c9.8,11.5,26.1,30.8,50.9,33.5c25.1,2.8,57.2-11.9,66.4-16.4l3.5-1.7c5.5-3.4,11.8-5.4,18.2-5.8l0.3,0
	l0.3,0c11.1,1,21.2,6.2,28.5,14.5c14.6,16.2,18.2,43.4,7.6,58.3l-0.1,0.1c-3.6,4.7-8.4,8-14,9.7c-7.5,2.5-13.9,7.6-18,14.4
	c-6.2,11.3-7.4,24.8-3.2,37.1l2,5.7l-6-1.2c-51.7-10-98.7-37.9-132.2-78.5c-33.5-40.6-52.1-92-52.1-144.6v0
	C12,225.1,13.5,210,16.5,195.2z"/>
<path d="M111.3,35.9c-15.7,0-28.5,12.8-28.5,28.5s12.8,28.5,28.5,28.5c15.7,0,28.5-12.8,28.5-28.5S127,35.9,111.3,35.9z M111.3,83.9
	c-10.7,0-19.5-8.7-19.5-19.5s8.7-19.5,19.5-19.5s19.5,8.7,19.5,19.5S122.1,83.9,111.3,83.9z"/>
<path d="M351.1,251.7c-15.7,0-28.5,12.8-28.5,28.5s12.8,28.5,28.5,28.5s28.5-12.8,28.5-28.5S366.8,251.7,351.1,251.7z M351.1,299.7
	c-10.7,0-19.5-8.7-19.5-19.5s8.7-19.5,19.5-19.5s19.5,8.7,19.5,19.5S361.9,299.7,351.1,299.7z"/>
</svg>
