<?xml version="1.0" encoding="utf-8"?>
<!-- Generator: Adobe Illustrator 23.0.1, SVG Export Plug-In . SVG Version: 6.00 Build 0)  -->
<svg version="1.1" id="Layer_1_1_" xmlns="http://www.w3.org/2000/svg" xmlns:xlink="http://www.w3.org/1999/xlink" x="0px" y="0px"
	 viewBox="0 0 512 512" style="enable-background:new 0 0 512 512;" xml:space="preserve">
<path d="M492.6,368c0-1.2-0.5-2.4-1.4-3.3l-14.6-14.6V24c0-2.6-2.1-4.6-4.6-4.6H56c-20.2,0-36.6,16.4-36.6,36.6v400
	c0,20.2,16.4,36.6,36.6,36.6h32c2.6,0,4.6-2.1,4.6-4.6v-59.4h198.8V488c0,2.5,2.1,4.6,4.6,4.6h192c2.5,0,4.6-2.1,4.6-4.6V368z
	 M83.4,483.4H56c-15.1,0-27.4-12.3-27.4-27.4V81.2l5.4,4.1c6.4,4.8,14,7.3,22,7.3h27.4V483.4z M292.7,364.7L292.7,364.7
	c-0.9,0.9-1.4,2.1-1.4,3.3v51.4H92.6V88c0-2.6-2.1-4.6-4.6-4.6H56c-15.1,0-27.4-12.3-27.4-27.4S40.9,28.6,56,28.6h411.4v246.8H432
	c-2.5,0-4.6,2.1-4.6,4.6v20.8l-32.1-32.1c-0.9-0.9-2-1.4-3.3-1.4s-2.4,0.5-3.3,1.4L292.7,364.7z M411.4,483.4h-38.8v-86.8h38.8
	V483.4z M483.4,483.4h-62.8V392c0-2.5-2.1-4.6-4.6-4.6h-48c-2.5,0-4.6,2.1-4.6,4.6v91.4h-62.8V369.9l91.4-91.4l36.7,36.7
	c1.3,1.3,3.3,1.7,5,1c1.7-0.7,2.9-2.4,2.9-4.3v-27.4h30.8V352c0,1.2,0.5,2.4,1.4,3.3l14.6,14.6V483.4z"/>
<path d="M436.6,64c0-2.6-2.1-4.6-4.6-4.6H128c-2.6,0-4.6,2.1-4.6,4.6v272c0,2.5,2.1,4.6,4.6,4.6h48c2.6,0,4.6-2.1,4.6-4.6
	c0-11.6,7.3-21.9,18.2-25.8l4.5-1.6V336c0,2.5,2.1,4.6,4.6,4.6h56c2.5,0,4.6-2.1,4.6-4.6V228.6H432c2.5,0,4.6-2.1,4.6-4.6V64z
	 M315.4,192v27.4H264c-2.5,0-4.6,2.1-4.6,4.6v107.4h-46.8V304c0-2.5-2.1-4.6-4.6-4.6c-17.3,0-32.4,12.3-35.9,29.3l-0.6,2.7h-38.9
	V164.6h56v-9.3h-56V68.6h94.8v86.8h-8v9.3H232c2.6,0,4.6-2.1,4.6-4.6V68.6h78.8V160c0,2.6,2.1,4.6,4.6,4.6
	c11.6,0,21.9,7.3,25.8,18.2l1.6,4.5H320C317.5,187.4,315.4,189.4,315.4,192z M427.4,219.4H324.6v-22.8H352c2.5,0,4.6-2.1,4.6-4.6
	c0-17.3-12.3-32.4-29.3-35.9l-2.7-0.6V68.6h102.8V219.4z"/>
<rect x="115.4" y="387.4" width="9.3" height="9.3"/>
<rect x="147.4" y="387.4" width="9.3" height="9.3"/>
<rect x="179.4" y="387.4" width="9.3" height="9.3"/>
</svg>
