<?xml version="1.0" encoding="utf-8"?>
<!-- Generator: Adobe Illustrator 23.0.1, SVG Export Plug-In . SVG Version: 6.00 Build 0)  -->
<svg version="1.1" id="Layer_5" xmlns="http://www.w3.org/2000/svg" xmlns:xlink="http://www.w3.org/1999/xlink" x="0px" y="0px"
	 viewBox="0 0 512 512" style="enable-background:new 0 0 512 512;" xml:space="preserve">
<path d="M401.6,419.5c31.9,0,57.9-26,57.9-57.9V184c0-10.8-8.7-19.5-19.5-19.5h-16c-10.8,0-19.5,8.7-19.5,19.5v4.5l-3,1.1
	c-7.8,2.8-13,10.1-13,18.4v9.4c0,5.2,2,10.1,5.7,13.8l10.1,10.1l-10.4,88.3l-6.8-11c-22.8-36.8-60-63.4-102-73.1l-2.5-0.6l-5.9-17.6
	l4.6-1.3c10.4-2.9,18.8-10.1,23.1-19.9l1.2-2.7h6.3c15.2,0,27.5-12.3,27.5-27.5v-44.5h4.5c6.3,0,11.5-5.2,11.5-11.5v-16
	c0-6.3-5.2-11.5-11.5-11.5h-5.2l-0.6-3.8c-7.3-44.2-45.3-76.2-90.2-76.2c-44.9,0-82.8,32.1-90.2,76.2l-0.6,3.8H152
	c-6.3,0-11.5,5.2-11.5,11.5v16c0,6.3,5.2,11.5,11.5,11.5h4.5V176c0,15.2,12.3,27.5,27.5,27.5h6.3l1.2,2.7c4.3,9.8,12.7,17,23.1,19.9
	l4.6,1.3l-5.9,17.6l-2.5,0.6c-17.3,4-34.2,11.4-49,21.6l-5,3.4l-17.8-55.3c0-0.3-0.1-0.5-0.1-0.8c-2.8-11.1-17-18-34.4-18
	c-4.7,0-9.6,0.5-14.6,1.6c-15.3,3.2-28,10.8-34,20.2c-3.1,4.9-4.1,10-3,14.9c0.6,2.6,1.9,5.1,3.9,7.4l0.3,0.4l56.2,84.1l-1,2.3
	c-7.9,18.2-11.9,37.2-11.9,56.5c0,31.4,17.5,59.9,45.6,74.3l2.4,1.3V472c0,15.2,12.3,27.5,27.5,27.5h171.5V385.8l8.1,10.7
	C366.6,411.1,383.4,419.5,401.6,419.5z M399.2,226.2c-2.4-2.4-3.7-5.5-3.7-8.8V208c0-6.9,5.6-12.5,12.5-12.5h3.5V184
	c0-6.9,5.6-12.5,12.5-12.5h16c6.9,0,12.5,5.6,12.5,12.5v52.5h-43.1L399.2,226.2z M312,196.5h-4.5v-41h4.5c11.3,0,20.5,9.2,20.5,20.5
	S323.3,196.5,312,196.5z M332.5,156.3l-6.8-3.9c-4.4-2.5-9-3.8-13.7-3.8h-4.5v-17h25V156.3z M267.5,21.6l5.8,1.8
	c29.4,9.1,51.4,33.5,57.4,63.8l1.1,5.4h-64.4V21.6z M235.5,20.3l4.1-0.4c2.9-0.3,5.7-0.4,8.4-0.4s5.6,0.1,8.4,0.4l4.1,0.4v72.2h-25
	V20.3z M165.2,87.1c6-30.2,28.1-54.6,57.4-63.8l5.8-1.8v70.9h-64.4L165.2,87.1z M188.5,196.5H184c-11.3,0-20.5-9.2-20.5-20.5
	s9.2-20.5,20.5-20.5h4.5V196.5z M188.5,148.5H184c-4.7,0-9.4,1.3-13.7,3.8l-6.8,3.9v-24.8h25V148.5z M147.5,124.5l0-25h201v25H147.5
	z M195.5,192v-60.5h105V192c0,15.7-12.8,28.5-28.5,28.5h-48C208.3,220.5,195.5,207.7,195.5,192z M249.8,294.8l-0.8-2.4l27.6-34.5
	v150.3l-7.5-6.7c-3.6-3.3-8.2-5-13-5h-4.5V304C251.5,301,250.9,298,249.8,294.8z M276.1,247.3L248,282.4l-28.1-35.1l6.6-19.8h44.2
	v3.8L276.1,247.3z M173.5,268.2c12.1-7.2,25-12.4,38.5-15.6l2.8-0.6l19.9,24.9l-9.6-0.2c-0.4,0-0.7,0-1-0.1l0,0h-47.6
	c-0.2,0-0.3,0-0.5,0h-16.4L173.5,268.2z M176,283.5h28.1l-3.9,6.8c-2.4,4.2-3.7,8.9-3.7,13.7v3.5h7V304c0-11.3,9.2-20.5,20.5-20.5
	s20.5,9.2,20.5,20.5s-9.2,20.5-20.5,20.5h-48c-11.3,0-20.5-9.2-20.5-20.5S164.7,283.5,176,283.5z M155.5,323.7l6.8,3.9
	c4.4,2.5,9,3.8,13.7,3.8h48c4.7,0,9.4-1.3,13.7-3.8l6.8-3.9v72.7l-3.3,0.9c-3.3,1-6.2,2.6-8.4,4.8l-10.3,10.3H192
	c-11.7,0-23.4-2.8-34-8l-2.5-1.2V323.7z M62.5,236.4l-2.1-3.3c-0.2-0.3-0.4-0.8-0.6-1.4l0-0.1c-0.7-3,0-6.2,2.1-9.5l0,0
	c4.9-7.7,16.2-14.3,29.5-17.1c4.7-1,9.3-1.5,13.7-1.5c12.1,0,21.9,3.7,25.8,9.8l0.3,0.5l1.1,3.4l0.1,0.4c0.3,2.8-0.4,5.6-2.2,8.4
	c-4.9,7.7-16.2,14.3-29.5,17.1c-4.9,1-9.4,1.5-13.6,1.5c-11.5,0-20.1-3.5-24.2-7.8L62.5,236.4z M71.7,250.2l9.5,0.9
	c2.2,0.2,4.2,0.3,6,0.3c4.9,0,9.8-0.5,14.8-1.6c11.9-2.5,22.3-7.7,29.2-14.5l5.2-5.1l18.1,56.3l-1.3,1.8c-3.2,4.6-4.9,10-4.9,15.6
	v61.2L71.7,250.2z M107.5,384c0-15,2.4-29.7,7.3-43.7l3-8.6l30.8,46.1v21.8l-7.5-6.7c-2.8-2.5-5.2-4.9-7.4-7.5l-5.6,4.2
	c15.8,18.8,39.4,29.9,64,29.9h28.5v41H184C141.8,460.5,107.5,426.2,107.5,384z M224,492.5h-48c-11.3,0-20.5-9.2-20.5-20.5v-9.4
	l5.7,1.6c7.6,2.1,15.2,3.2,22.8,3.2h60.5v4.5C244.5,483.3,235.3,492.5,224,492.5z M276.5,492.5h-32.8l3.9-6.8
	c2.5-4.4,3.8-9,3.8-13.7v-4.5h25V492.5z M227.5,460.5v-43.1l10.3-10.3c2.3-2.3,5.6-3.7,8.8-3.7h9.4c6.9,0,12.5,5.6,12.5,12.5v3.5
	H280c6.9,0,12.5,5.6,12.5,12.5v16c0,6.9-5.6,12.5-12.5,12.5H227.5z M340.5,340.5v152h-57v-25.1l3-1.1c7.8-2.8,13-10.1,13-18.3v-16
	c0-8.2-5.2-15.5-13-18.3l-3-1.1V252.2l5.7,1.5c45.1,12.1,82.1,43.5,101.4,86l1.7,3.8l-3.2,27.6l6.9,0.8l15.1-128.4h41.4v118.1
	c0,28.1-22.8,50.9-50.9,50.9c-19.4,0-36.8-10.8-45.5-28.1l-8.6-17.2v-26.7H340.5z"/>
</svg>
