<?xml version="1.0" encoding="utf-8"?>
<!-- Generator: Adobe Illustrator 23.0.1, SVG Export Plug-In . SVG Version: 6.00 Build 0)  -->
<svg version="1.1" id="Слой_1" xmlns="http://www.w3.org/2000/svg" xmlns:xlink="http://www.w3.org/1999/xlink" x="0px" y="0px"
	 viewBox="0 0 740 740" style="enable-background:new 0 0 740 740;" xml:space="preserve">
<style type="text/css">
	.st0{fill:#385C8E;}
</style>
<g>
	<path class="st0" d="M365.6,761c-49.9,0-98.4-9.8-144-29.1c-44.1-18.6-83.6-45.3-117.6-79.3c-34-34-60.7-73.5-79.3-117.6
		C5.4,489.4-4.4,441-4.4,391c0-49.9,9.8-98.4,29.1-144c18.6-44.1,45.3-83.6,79.3-117.6c34-34,73.5-60.7,117.6-79.3
		c45.6-19.3,94.1-29.1,144-29.1s98.4,9.8,144,29.1c44.1,18.6,83.6,45.3,117.6,79.3c34,34,60.7,73.5,79.3,117.6
		c19.3,45.6,29.1,94.1,29.1,144c0,49.9-9.8,98.4-29.1,144c-18.6,44.1-45.3,83.6-79.3,117.6c-34,34-73.5,60.7-117.6,79.3
		C464,751.2,415.5,761,365.6,761z M365.6,51c-187.5,0-340,152.5-340,340s152.5,340,340,340s340-152.5,340-340S553,51,365.6,51z"/>
</g>
<path class="st0" d="M258.7,416.5h43.8v180.3c0,3.6,2.9,6.4,6.4,6.4h74.2c3.6,0,6.4-2.9,6.4-6.4V417.3h50.3c3.3,0,6-2.5,6.4-5.7
	l7.6-66.4c0.2-1.8-0.4-3.7-1.6-5c-1.2-1.4-3-2.2-4.8-2.2h-58v-41.6c0-12.5,6.8-18.9,20.1-18.9c1.9,0,37.9,0,37.9,0
	c3.6,0,6.4-2.9,6.4-6.4v-60.9c0-3.6-2.9-6.4-6.4-6.4h-52.2c-0.4,0-1.2,0-2.4,0c-9.1,0-40.6,1.8-65.5,24.7
	c-27.6,25.4-23.7,55.8-22.8,61v48.6h-46c-3.6,0-6.4,2.9-6.4,6.4V410C252.2,413.6,255.1,416.5,258.7,416.5z"/>
</svg>
