<?xml version="1.0" encoding="utf-8"?>
<!-- Generator: Adobe Illustrator 23.0.1, SVG Export Plug-In . SVG Version: 6.00 Build 0)  -->
<svg version="1.1" id="Слой_1" xmlns="http://www.w3.org/2000/svg" xmlns:xlink="http://www.w3.org/1999/xlink" x="0px" y="0px"
	 viewBox="0 0 740 740" style="enable-background:new 0 0 740 740;" xml:space="preserve">
<style type="text/css">
	.st0{fill:url(#SVGID_1_);}
	.st1{fill:url(#SVGID_2_);}
	.st2{fill:url(#SVGID_3_);}
	.st3{fill:url(#SVGID_4_);}
</style>
<g>
	<linearGradient id="SVGID_1_" gradientUnits="userSpaceOnUse" x1="2.761475e-05" y1="370.0001" x2="740" y2="370.0001">
		<stop  offset="0" style="stop-color:#FFC107"/>
		<stop  offset="0.507" style="stop-color:#F44336"/>
		<stop  offset="0.99" style="stop-color:#9C27B0"/>
	</linearGradient>
	<path class="st0" d="M370,740c-49.9,0-98.4-9.8-144-29.1c-44.1-18.6-83.6-45.3-117.6-79.3c-34-34-60.7-73.5-79.3-117.6
		C9.8,468.4,0,419.9,0,370c0-49.9,9.8-98.4,29.1-144c18.6-44.1,45.3-83.6,79.3-117.6c34-34,73.5-60.7,117.6-79.3
		C271.6,9.8,320.1,0,370,0s98.4,9.8,144,29.1c44.1,18.6,83.6,45.3,117.6,79.3c34,34,60.7,73.5,79.3,117.6
		c19.3,45.6,29.1,94.1,29.1,144c0,49.9-9.8,98.4-29.1,144c-18.6,44.1-45.3,83.6-79.3,117.6c-34,34-73.5,60.7-117.6,79.3
		C468.4,730.2,419.9,740,370,740z M370,30C182.5,30,30,182.5,30,370s152.5,340,340,340s340-152.5,340-340S557.5,30,370,30z"/>
</g>
<linearGradient id="SVGID_2_" gradientUnits="userSpaceOnUse" x1="243.77" y1="421.7413" x2="253.0823" y2="412.4289" gradientTransform="matrix(32 0 0 32 -7579.6372 -12964.2773)">
	<stop  offset="0" style="stop-color:#FFC107"/>
	<stop  offset="0.507" style="stop-color:#F44336"/>
	<stop  offset="0.99" style="stop-color:#9C27B0"/>
</linearGradient>
<path class="st1" d="M438.4,200.1H301.6c-62.9,0-114,51-114,114v136.8c0,62.9,51,114,114,114h136.8c62.9,0,114-51,114-114V314
	C552.4,251.1,501.3,200.1,438.4,200.1z M518.2,450.8c0,44-35.8,79.8-79.8,79.8H301.6c-44,0-79.8-35.8-79.8-79.8V314
	c0-44,35.8-79.8,79.8-79.8h136.8c44,0,79.8,35.8,79.8,79.8V450.8z"/>
<linearGradient id="SVGID_3_" gradientUnits="userSpaceOnUse" x1="246.4111" y1="419.1002" x2="250.4413" y2="415.07" gradientTransform="matrix(32 0 0 32 -7579.6372 -12964.2773)">
	<stop  offset="0" style="stop-color:#FFC107"/>
	<stop  offset="0.507" style="stop-color:#F44336"/>
	<stop  offset="0.99" style="stop-color:#9C27B0"/>
</linearGradient>
<path class="st2" d="M370,291.3c-50.4,0-91.2,40.8-91.2,91.2s40.8,91.2,91.2,91.2s91.2-40.8,91.2-91.2S420.4,291.3,370,291.3z
	 M370,439.4c-31.4,0-57-25.6-57-57c0-31.4,25.6-57,57-57s57,25.6,57,57C427,413.9,401.4,439.4,370,439.4z"/>
<linearGradient id="SVGID_4_" gradientUnits="userSpaceOnUse" x1="251.2212" y1="414.29" x2="251.7582" y2="413.753" gradientTransform="matrix(32 0 0 32 -7579.6372 -12964.2773)">
	<stop  offset="0" style="stop-color:#FFC107"/>
	<stop  offset="0.507" style="stop-color:#F44336"/>
	<stop  offset="0.99" style="stop-color:#9C27B0"/>
</linearGradient>
<circle class="st3" cx="468" cy="284.4" r="12.2"/>
</svg>
